<?xml version="1.0" standalone="no"?>
<svg viewBox="0 0 200 200" xmlns="http://www.w3.org/2000/svg">
  <path fill="#77D5FC" d="M47.8,-71.9C60.9,-65.9,69.8,-50.9,72.1,-35.9C74.4,-20.8,70.3,-5.6,65.1,7.3C60,20.2,54,30.9,46,39.5C38,48.1,28,54.6,16.1,60.7C4.3,66.8,-9.3,72.5,-22.1,70.8C-34.8,69,-46.6,59.8,-58.4,49.1C-70.2,38.3,-82,25.9,-82.3,12.9C-82.5,-0.1,-71.1,-13.7,-62.9,-27.4C-54.6,-41.1,-49.4,-55,-39.4,-62.4C-29.5,-69.8,-14.7,-70.8,1.3,-72.8C17.3,-74.8,34.7,-77.9,47.8,-71.9Z" transform="translate(100 100)" />
</svg>
