<?xml version="1.0" standalone="no"?>
<svg viewBox="0 0 200 200" xmlns="http://www.w3.org/2000/svg">
  <path fill="#77D5FC" d="M40.9,-66.8C50,-65.5,52.5,-48.6,55.8,-34.9C59.2,-21.1,63.5,-10.6,68.6,2.9C73.7,16.4,79.5,32.9,74.3,43.4C69,53.8,52.7,58.3,38.4,65.4C24.2,72.5,12.1,82.2,-1.2,84.2C-14.5,86.3,-29,80.8,-42.6,73.4C-56.2,65.9,-68.9,56.5,-75.4,44C-81.8,31.4,-81.9,15.7,-77.1,2.8C-72.3,-10.2,-62.6,-20.3,-54.9,-30.7C-47.2,-41.1,-41.6,-51.6,-32.8,-53.1C-23.9,-54.6,-12,-46.9,1.9,-50.3C15.9,-53.7,31.7,-68,40.9,-66.8Z" transform="translate(100 100)" />
</svg>
