<?xml version="1.0" standalone="no"?>
<svg xmlns:xlink="http://www.w3.org/1999/xlink" id="wave" style="transform:rotate(180deg); transition: 0.3s" viewBox="0 0 1440 490" version="1.1" xmlns="http://www.w3.org/2000/svg"><defs><linearGradient id="sw-gradient-0" x1="0" x2="0" y1="1" y2="0"><stop stop-color="rgba(1, 28, 55, 1)" offset="0%"/><stop stop-color="rgba(122, 214, 252, 1)" offset="100%"/></linearGradient></defs><path style="transform:translate(0, 0px); opacity:1" fill="url(#sw-gradient-0)" d="M0,245L21.8,245C43.6,245,87,245,131,277.7C174.5,310,218,376,262,383.8C305.5,392,349,343,393,285.8C436.4,229,480,163,524,155.2C567.3,147,611,196,655,204.2C698.2,212,742,180,785,204.2C829.1,229,873,310,916,294C960,278,1004,163,1047,98C1090.9,33,1135,16,1178,8.2C1221.8,0,1265,0,1309,40.8C1352.7,82,1396,163,1440,171.5C1483.6,180,1527,114,1571,130.7C1614.5,147,1658,245,1702,236.8C1745.5,229,1789,114,1833,57.2C1876.4,0,1920,0,1964,8.2C2007.3,16,2051,33,2095,98C2138.2,163,2182,278,2225,302.2C2269.1,327,2313,261,2356,196C2400,131,2444,65,2487,73.5C2530.9,82,2575,163,2618,204.2C2661.8,245,2705,245,2749,236.8C2792.7,229,2836,212,2880,171.5C2923.6,131,2967,65,3011,106.2C3054.5,147,3098,294,3120,367.5L3141.8,441L3141.8,490L3120,490C3098.2,490,3055,490,3011,490C2967.3,490,2924,490,2880,490C2836.4,490,2793,490,2749,490C2705.5,490,2662,490,2618,490C2574.5,490,2531,490,2487,490C2443.6,490,2400,490,2356,490C2312.7,490,2269,490,2225,490C2181.8,490,2138,490,2095,490C2050.9,490,2007,490,1964,490C1920,490,1876,490,1833,490C1789.1,490,1745,490,1702,490C1658.2,490,1615,490,1571,490C1527.3,490,1484,490,1440,490C1396.4,490,1353,490,1309,490C1265.5,490,1222,490,1178,490C1134.5,490,1091,490,1047,490C1003.6,490,960,490,916,490C872.7,490,829,490,785,490C741.8,490,698,490,655,490C610.9,490,567,490,524,490C480,490,436,490,393,490C349.1,490,305,490,262,490C218.2,490,175,490,131,490C87.3,490,44,490,22,490L0,490Z"/></svg>