<?xml version="1.0" standalone="no"?><svg xmlns="http://www.w3.org/2000/svg" viewBox="0 0 1440 320"><path fill="#011c37" fill-opacity="0.98" d="M0,288L17.1,282.7C34.3,277,69,267,103,234.7C137.1,203,171,149,206,149.3C240,149,274,203,309,240C342.9,277,377,299,411,282.7C445.7,267,480,213,514,202.7C548.6,192,583,224,617,208C651.4,192,686,128,720,96C754.3,64,789,64,823,85.3C857.1,107,891,149,926,170.7C960,192,994,192,1029,192C1062.9,192,1097,192,1131,186.7C1165.7,181,1200,171,1234,160C1268.6,149,1303,139,1337,117.3C1371.4,96,1406,64,1423,48L1440,32L1440,320L1422.9,320C1405.7,320,1371,320,1337,320C1302.9,320,1269,320,1234,320C1200,320,1166,320,1131,320C1097.1,320,1063,320,1029,320C994.3,320,960,320,926,320C891.4,320,857,320,823,320C788.6,320,754,320,720,320C685.7,320,651,320,617,320C582.9,320,549,320,514,320C480,320,446,320,411,320C377.1,320,343,320,309,320C274.3,320,240,320,206,320C171.4,320,137,320,103,320C68.6,320,34,320,17,320L0,320Z"></path></svg>